<?xml version="1.0" encoding="UTF-8"?>
<svg width="60px" height="60px" viewBox="0 0 60 60" version="1.1" xmlns="http://www.w3.org/2000/svg" xmlns:xlink="http://www.w3.org/1999/xlink">
    <!-- Generator: Sketch 50.2 (55047) - http://www.bohemiancoding.com/sketch -->
    <title>adult-user</title>
    <desc>Created with Sketch.</desc>
    <defs>
        <circle id="path-1" cx="30" cy="30" r="30"></circle>
        <polygon id="path-3" points="0.00708661417 0.00472440945 60 0.00472440945 60 60 0.00708661417 60"></polygon>
    </defs>
    <g id="Page-1" stroke="none" stroke-width="1" fill="none" fill-rule="evenodd">
        <g id="Purchase-Page(without-login)-8,14" transform="translate(-561.000000, -331.000000)">
            <g id="Group-15" transform="translate(0.000000, 93.000000)">
                <g id="Group" transform="translate(391.000000, 238.000000)">
                    <g id="adult-user" transform="translate(170.000000, 0.000000)">
                        <mask id="mask-2" fill="white">
                            <use xlink:href="#path-1"></use>
                        </mask>
                        <use id="Mask" fill="#D8D8D8" xlink:href="#path-1"></use>
                        <g id="man-(2)" mask="url(#mask-2)">
                            <g id="Group-3">
                                <mask id="mask-4" fill="white">
                                    <use xlink:href="#path-3"></use>
                                </mask>
                                <g id="Clip-2"></g>
                                <path d="M30,0 C46.5685039,0 60,13.4314961 60,30 C60,46.5685039 46.5685039,60 30,60 C13.4314961,60 0,46.5685039 0,30 C0,13.4314961 13.4314961,0 30,0" id="Fill-1" fill="#E77D66" mask="url(#mask-4)"></path>
                            </g>
                            <path d="M30.3582677,42.8503937 C30.2749344,42.8503937 30.191601,43.0503937 30.1082677,43.0503937 C30.0249344,43.0503937 29.941601,42.8503937 29.8582677,42.8503937 L30.3582677,42.8503937" id="Fill-4" fill="#8CD0E9"></path>
                            <path d="M53.2913386,48.8976378 C47.8110236,55.6535433 39.4015748,60 30,60 C20.5984252,60 12.1889764,55.6535433 6.70866142,48.8976378 C10.6299213,43.6535433 16.6299213,41.0551181 21.5433071,39.7795276 C21.1653543,42.8976378 22.7716535,47.0551181 22.8188976,46.9606299 C24.4724409,43.1811024 30,42.8503937 30,42.8503937 C30,42.8503937 35.5275591,43.1811024 37.1338583,46.9606299 C37.1811024,47.0551181 38.8346457,42.8976378 38.4094488,39.7795276 C43.3700787,41.0551181 49.4173228,43.6535433 53.2913386,48.8976378" id="Fill-5" fill="#8CD0E9"></path>
                            <path d="M36.7559055,36.8503937 C36.7559055,36.8503937 36.7559055,36.8503937 36.7559055,36.8976378 C36.7559055,37.3700787 36.519685,40.3937008 30.1417323,42.8031496 L29.8582677,42.8031496 C23.480315,40.3937008 23.2440945,37.3700787 23.2440945,36.8976378 C23.2440945,36.8503937 23.2440945,36.8503937 23.2440945,36.8503937 C23.2440945,36.2362205 23.3858268,35.6220472 23.5275591,35.007874 C25.3700787,37.3228346 27.5905512,38.8818898 30,38.8818898 C32.4094488,38.8818898 34.6299213,37.3228346 36.4724409,35.007874 C36.6141732,35.6220472 36.7559055,36.2362205 36.7559055,36.8503937" id="Fill-6" fill="#FFFFFE"></path>
                            <path d="M36.7559055,36.8503937 C36.7559055,36.8503937 37.0866142,40.2519685 30,42.8976378 C30,42.8976378 35.5275591,43.2283465 37.1338583,47.007874 C37.2283465,47.1023622 40.3937008,38.8818898 36.7559055,36.8503937" id="Fill-7" fill="#5AB9DC"></path>
                            <path d="M23.2440945,36.8503937 C19.6062992,38.8818898 22.7716535,47.1023622 22.8661417,46.9606299 C24.519685,43.1811024 30,42.8503937 30,42.8503937 C22.9133858,40.2519685 23.2440945,36.8503937 23.2440945,36.8503937" id="Fill-8" fill="#5AB9DC"></path>
                            <path d="M39.9212598,24.8976378 C39.496063,27.8267717 38.2204724,30.5669291 36.0944882,32.6456693 C35.6692913,33.0708661 35.2913386,33.4015748 34.8188976,33.7322835 L34.0629921,31.3228346 L25.9370079,31.3228346 L25.1811024,33.7322835 C23.6692913,32.5984252 20.503937,29.4330709 20.4566929,26.4566929 C19.1338583,9.49606299 32.1259843,13.0866142 32.1259843,13.0866142 C40.8661417,12.4724409 40.5826772,20.1732283 39.9212598,24.8976378" id="Fill-9" fill="#FFFFFE"></path>
                            <path d="M41.6692913,27.9685039 C41.007874,29.0551181 40.1102362,29.8110236 39.2598425,30.0944882 C39.5905512,29.3385827 39.8740157,28.5354331 40.1102362,27.7322835 C40.1102362,27.7322835 40.1102362,27.7322835 40.1102362,27.6850394 C40.2992126,26.976378 40.488189,26.2677165 40.6771654,25.5590551 L40.6299213,25.5590551 C40.8188976,24.8503937 41.007874,24.1417323 41.1496063,23.4330709 C41.3385827,23.4330709 41.5275591,23.5275591 41.7165354,23.6220472 C42.7559055,24.2834646 42.7086614,26.2204724 41.6692913,27.9685039" id="Fill-10" fill="#FFFFFE"></path>
                            <path d="M20.7401575,30.0944882 C19.8897638,29.8110236 18.992126,29.0551181 18.3307087,27.9685039 C17.2440945,26.2204724 17.2440945,24.2834646 18.2834646,23.6692913 C18.3779528,23.6220472 18.4251969,23.5748031 18.519685,23.5748031 C19.0866142,25.7952756 19.7480315,27.4488189 19.8897638,27.7795276 C20.1259843,28.5354331 20.4094488,29.3385827 20.7401575,30.0944882" id="Fill-11" fill="#FFFFFE"></path>
                            <path d="M39.9212598,24.8976378 C39.496063,27.8267717 38.2204724,30.5669291 36.0944882,32.6456693 C35.6692913,33.0708661 35.2440945,33.4015748 34.8188976,33.7322835 L34.0629921,31.3700787 L25.9370079,31.3700787 L25.1811024,33.7795276 C23.6692913,32.6456693 22.3937008,31.0866142 21.3543307,29.2913386 C20.8818898,28.3464567 20.5984252,27.3543307 20.4566929,26.503937 C19.1338583,9.54330709 32.1259843,13.1338583 32.1259843,13.1338583 C40.8661417,12.4724409 40.5826772,20.1732283 39.9212598,24.8976378 Z M35.1496063,8.36220472 C35.5275591,4.01574803 28.6299213,4.2992126 28.6299213,4.2992126 C18.1889764,5.81102362 17.0551181,15.5433071 17.0551181,15.5433071 L18.4724409,13.8425197 C16.2519685,18.7086614 19.6062992,27.0708661 19.8897638,27.7322835 C21.6377953,33.5433071 25.511811,38.8818898 30,38.8818898 C34.488189,38.8818898 38.3622047,33.5433071 40.1102362,27.7322835 C40.1102362,27.7322835 40.1102362,27.7322835 40.1102362,27.6850394 C40.2992126,26.976378 40.488189,26.2677165 40.6299213,25.5590551 L40.5826772,25.5590551 C41.5275591,21.7795276 42.5669291,17.9527559 42.5669291,17.9527559 C45.2598425,4.39370079 35.1496063,8.36220472 35.1496063,8.36220472 Z" id="Fill-12" fill="#2F424F"></path>
                            <path d="M39.9212598,24.8976378 C39.496063,27.8267717 38.2204724,30.5669291 36.0944882,32.6456693 C35.6692913,33.0708661 35.2440945,33.4015748 34.8188976,33.7322835 L34.0629921,31.3700787 L25.9370079,31.3700787 L25.1811024,33.7795276 C23.6692913,32.6456693 22.3937008,31.0866142 21.3543307,29.2913386 C20.8818898,28.3464567 20.5984252,27.3543307 20.4566929,26.503937 C19.1338583,9.54330709 32.1259843,13.1338583 32.1259843,13.1338583 C40.8661417,12.4724409 40.5826772,20.1732283 39.9212598,24.8976378 Z M35.1496063,8.36220472 C35.5275591,4.01574803 28.6299213,4.2992126 28.6299213,4.2992126 C18.1889764,5.81102362 17.0551181,15.5433071 17.0551181,15.5433071 L18.4724409,13.8425197 C16.2519685,18.7086614 19.6062992,27.0708661 19.8897638,27.7322835 C21.6377953,33.5433071 25.511811,38.8818898 30,38.8818898 C34.488189,38.8818898 38.3622047,33.5433071 40.1102362,27.7322835 C40.1102362,27.7322835 40.1102362,27.7322835 40.1102362,27.6850394 C40.2992126,26.976378 40.488189,26.2677165 40.6299213,25.5590551 L40.5826772,25.5590551 C41.5275591,21.7795276 42.5669291,17.9527559 42.5669291,17.9527559 C45.2598425,4.39370079 35.1496063,8.36220472 35.1496063,8.36220472 Z" id="Fill-13" fill="#2F424F"></path>
                            <path d="M39.9212598,24.8976378 C39.496063,27.8267717 38.2204724,30.5669291 36.0944882,32.6456693 C35.6692913,33.0708661 35.2440945,33.4015748 34.8188976,33.7322835 L34.0629921,31.3700787 L25.9370079,31.3700787 L25.1811024,33.7795276 C23.6692913,32.6456693 20.503937,29.480315 20.4566929,26.503937 C19.1338583,9.54330709 32.1259843,13.1338583 32.1259843,13.1338583 C40.8661417,12.4724409 40.5826772,20.1732283 39.9212598,24.8976378 Z M35.1496063,8.36220472 C35.5275591,4.01574803 28.6299213,4.2992126 28.6299213,4.2992126 C18.1889764,5.81102362 17.0551181,15.5433071 17.0551181,15.5433071 L18.4724409,13.8425197 C16.2519685,18.7086614 19.6062992,27.0708661 19.8897638,27.7322835 C21.6377953,33.5433071 25.511811,38.8818898 30,38.8818898 C34.488189,38.8818898 38.3622047,33.5433071 40.1102362,27.7322835 C40.1102362,27.7322835 40.1102362,27.7322835 40.1102362,27.6850394 C40.2992126,26.976378 40.488189,26.2677165 40.6299213,25.5590551 L40.5826772,25.5590551 C41.5275591,21.7795276 42.5669291,17.9527559 42.5669291,17.9527559 C45.2598425,4.39370079 35.1496063,8.36220472 35.1496063,8.36220472 Z" id="Fill-14" fill="#2F424F"></path>
                            <path d="M26.6929134,32.976378 C27.496063,33.8740157 28.6771654,34.488189 30,34.488189 C31.3228346,34.488189 32.503937,33.9212598 33.3070866,32.976378 L26.6929134,32.976378" id="Fill-15" fill="#FFFFFE"></path>
                        </g>
                    </g>
                </g>
            </g>
        </g>
    </g>
</svg>