<?xml version="1.0" encoding="UTF-8"?>
<svg width="26px" height="26px" viewBox="0 0 26 26" version="1.1" xmlns="http://www.w3.org/2000/svg" xmlns:xlink="http://www.w3.org/1999/xlink">
    <!-- Generator: Sketch 50.2 (55047) - http://www.bohemiancoding.com/sketch -->
    <title>calendar</title>
    <desc>Created with Sketch.</desc>
    <defs></defs>
    <g id="Page-1" stroke="none" stroke-width="1" fill="none" fill-rule="evenodd">
        <g id="Venue-Page-2-8.14" transform="translate(-1300.000000, -1100.000000)" fill="#5E5E5E">
            <g id="Group-2" transform="translate(1300.000000, 1100.000000)">
                <g id="calendar">
                    <g id="Group-3">
                        <path d="M22.953125,23.96875 L3.046875,23.96875 C2.48685937,23.96875 2.03125,23.5131406 2.03125,22.953125 L2.03125,9.546875 L23.96875,9.546875 L23.96875,22.953125 C23.96875,23.5131406 23.5131406,23.96875 22.953125,23.96875 Z M3.046875,4.0625 L4.265625,4.0625 L4.265625,6.09375 L6.296875,6.09375 L6.296875,4.0625 L19.703125,4.0625 L19.703125,6.09375 L21.734375,6.09375 L21.734375,4.0625 L22.953125,4.0625 C23.5131406,4.0625 23.96875,4.51810937 23.96875,5.078125 L23.96875,7.515625 L2.03125,7.515625 L2.03125,5.078125 C2.03125,4.51810937 2.48685937,4.0625 3.046875,4.0625 Z M22.953125,2.03125 L21.734375,2.03125 L21.734375,0 L19.703125,0 L19.703125,2.03125 L6.296875,2.03125 L6.296875,0 L4.265625,0 L4.265625,2.03125 L3.046875,2.03125 C1.36682813,2.03125 0,3.39807812 0,5.078125 L0,22.953125 C0,24.6331719 1.36682813,26 3.046875,26 L22.953125,26 C24.6331719,26 26,24.6331719 26,22.953125 L26,5.078125 C26,3.39807812 24.6331719,2.03125 22.953125,2.03125 Z" id="Fill-1"></path>
                    </g>
                    <polygon id="Fill-4" points="3.859375 13.7109375 5.890625 13.7109375 5.890625 11.6796875 3.859375 11.6796875"></polygon>
                    <polygon id="Fill-5" points="7.921875 13.7109375 9.953125 13.7109375 9.953125 11.6796875 7.921875 11.6796875"></polygon>
                    <polygon id="Fill-6" points="11.984375 13.7109375 14.015625 13.7109375 14.015625 11.6796875 11.984375 11.6796875"></polygon>
                    <polygon id="Fill-7" points="16.046875 13.7109375 18.078125 13.7109375 18.078125 11.6796875 16.046875 11.6796875"></polygon>
                    <polygon id="Fill-8" points="20.109375 13.7109375 22.140625 13.7109375 22.140625 11.6796875 20.109375 11.6796875"></polygon>
                    <polygon id="Fill-9" points="3.859375 17.7734375 5.890625 17.7734375 5.890625 15.7421875 3.859375 15.7421875"></polygon>
                    <polygon id="Fill-10" points="7.921875 17.7734375 9.953125 17.7734375 9.953125 15.7421875 7.921875 15.7421875"></polygon>
                    <polygon id="Fill-11" points="11.984375 17.7734375 14.015625 17.7734375 14.015625 15.7421875 11.984375 15.7421875"></polygon>
                    <polygon id="Fill-12" points="16.046875 17.7734375 18.078125 17.7734375 18.078125 15.7421875 16.046875 15.7421875"></polygon>
                    <polygon id="Fill-13" points="3.859375 21.8359375 5.890625 21.8359375 5.890625 19.8046875 3.859375 19.8046875"></polygon>
                    <polygon id="Fill-14" points="7.921875 21.8359375 9.953125 21.8359375 9.953125 19.8046875 7.921875 19.8046875"></polygon>
                    <polygon id="Fill-15" points="11.984375 21.8359375 14.015625 21.8359375 14.015625 19.8046875 11.984375 19.8046875"></polygon>
                    <polygon id="Fill-16" points="16.046875 21.8359375 18.078125 21.8359375 18.078125 19.8046875 16.046875 19.8046875"></polygon>
                    <polygon id="Fill-17" points="20.109375 17.7734375 22.140625 17.7734375 22.140625 15.7421875 20.109375 15.7421875"></polygon>
                </g>
            </g>
        </g>
    </g>
</svg>