<?xml version="1.0" encoding="UTF-8"?>
<svg width="60px" height="60px" viewBox="0 0 60 60" version="1.1" xmlns="http://www.w3.org/2000/svg" xmlns:xlink="http://www.w3.org/1999/xlink">
    <!-- Generator: Sketch 50.2 (55047) - http://www.bohemiancoding.com/sketch -->
    <title>man (2)</title>
    <desc>Created with Sketch.</desc>
    <defs>
        <circle id="path-1" cx="30" cy="30" r="30"></circle>
    </defs>
    <g id="Page-1" stroke="none" stroke-width="1" fill="none" fill-rule="evenodd">
        <g id="Purchase-Page(without-login)-8,14" transform="translate(-555.000000, -442.000000)">
            <g id="Group-15" transform="translate(6.000000, 97.000000)">
                <g id="Group-Copy" transform="translate(383.000000, 345.000000)">
                    <g id="man-(2)" transform="translate(166.000000, 0.000000)">
                        <mask id="mask-2" fill="white">
                            <use xlink:href="#path-1"></use>
                        </mask>
                        <use id="Mask" fill="#E77D66" xlink:href="#path-1"></use>
                        <g id="boy-(1)" mask="url(#mask-2)">
                            <g transform="translate(12.000000, 8.000000)">
                                <polygon id="Fill-1" fill="#FDCC9B" points="14.9961217 47.9546783 22.7666261 47.9546783 22.7666261 39.2523478 14.9961217 39.2523478"></polygon>
                                <path d="M14.9961217,40.2770261 C14.9961217,40.2770261 18.2654435,42.3577739 22.7662957,41.8763304 L22.7662957,39.2510261 L14.9961217,39.2510261 L14.9961217,40.2770261 Z" id="Fill-2" fill="#FCBC85"></path>
                                <path d="M7.58314783,25.7573913 C7.58314783,28.145113 5.88570435,30.0827826 3.79107826,30.0827826 C1.69744348,30.0827826 0,28.145113 0,25.7573913 C0,23.3680174 1.69744348,21.4306783 3.79107826,21.4306783 C5.88570435,21.4306783 7.58314783,23.3680174 7.58314783,25.7573913 Z" id="Fill-3" fill="#FCBC85"></path>
                                <path d="M37.7624174,25.7573913 C37.7624174,28.145113 36.0653043,30.0827826 33.9716696,30.0827826 C31.8780348,30.0827826 30.1805913,28.145113 30.1805913,25.7573913 C30.1805913,23.3680174 31.8780348,21.4306783 33.9716696,21.4306783 C36.0653043,21.4306783 37.7624174,23.3680174 37.7624174,25.7573913 Z" id="Fill-4" fill="#FCBC85"></path>
                                <path d="M33.9561391,17.4938783 C33.9561391,11.1227652 29.2937043,6.46033043 18.8813739,6.46033043 C8.46871304,6.46033043 3.8066087,11.1227652 3.8066087,17.4938783 C3.8066087,23.866313 2.71947826,40.650087 18.8813739,40.650087 C35.0442609,40.650087 33.9561391,23.866313 33.9561391,17.4938783 Z" id="Fill-5" fill="#FDCC9B"></path>
                                <path d="M13.1708,24.7208174 C13.1708,25.7081565 12.4402087,26.5084696 11.5394435,26.5084696 C10.6383478,26.5084696 9.90643478,25.7081565 9.90643478,24.7208174 C9.90643478,23.7334783 10.6383478,22.9331652 11.5394435,22.9331652 C12.4402087,22.9331652 13.1708,23.7334783 13.1708,24.7208174 Z" id="Fill-6" fill="#3B2519"></path>
                                <path d="M11.3160696,23.9320696 C11.3160696,24.200713 11.0966609,24.4201217 10.8283478,24.4201217 C10.5583826,24.4201217 10.3402957,24.200713 10.3402957,23.9320696 C10.3402957,23.6624348 10.5583826,23.4443478 10.8283478,23.4443478 C11.0966609,23.4443478 11.3160696,23.6624348 11.3160696,23.9320696 Z" id="Fill-7" fill="#FFFFFF"></path>
                                <path d="M8.92834783,20.2910087 C9.69991304,20.6769565 10.9390435,18.9808348 13.7751652,20.4562261 C14.2926261,20.7258609 14.6012522,18.1547478 11.5612522,18.1547478 C8.92834783,18.1547478 8.46210435,20.058713 8.92834783,20.2910087 Z" id="Fill-8" fill="#51362A"></path>
                                <path d="M28.0572174,24.7208174 C28.0572174,25.7081565 27.3266261,26.5084696 26.4258609,26.5084696 C25.5247652,26.5084696 24.7941739,25.7081565 24.7941739,24.7208174 C24.7941739,23.7334783 25.5247652,22.9331652 26.4258609,22.9331652 C27.3266261,22.9331652 28.0572174,23.7334783 28.0572174,24.7208174 Z" id="Fill-9" fill="#3B2519"></path>
                                <path d="M26.202487,23.9320696 C26.202487,24.200713 25.9844,24.4201217 25.7144348,24.4201217 C25.4448,24.4201217 25.226713,24.200713 25.226713,23.9320696 C25.226713,23.6624348 25.4448,23.4443478 25.7144348,23.4443478 C25.9844,23.4443478 26.202487,23.6624348 26.202487,23.9320696 Z" id="Fill-10" fill="#FFFFFF"></path>
                                <path d="M28.8344,20.2910087 C28.0625043,20.6769565 26.8233739,18.9808348 23.9875826,20.4562261 C23.471113,20.7258609 23.1628174,18.1547478 26.202487,18.1547478 C28.8344,18.1547478 29.300313,20.058713 28.8344,20.2910087 Z" id="Fill-11" fill="#51362A"></path>
                                <path d="M18.8813739,31.0070087 C17.2691826,31.0070087 16.2983652,29.8025739 16.2983652,30.3861217 C16.2983652,30.9680174 16.7642783,32.0756348 18.8813739,32.0756348 C20.9994609,32.0756348 21.4653739,30.9680174 21.4653739,30.3861217 C21.4653739,29.8025739 20.4935652,31.0070087 18.8813739,31.0070087 Z" id="Fill-12" fill="#FCBC85"></path>
                                <path d="M18.8813739,36.366 C18.3236,36.366 17.9882087,35.9493217 17.9882087,36.1505565 C17.9882087,36.3517913 18.1494609,36.7354261 18.8813739,36.7354261 C19.6142783,36.7354261 19.7745391,36.3517913 19.7745391,36.1505565 C19.7745391,35.9493217 19.4388174,36.366 18.8813739,36.366 Z" id="Fill-13" fill="#FCBC85"></path>
                                <path d="M18.8813739,34.8803652 C16.3254609,34.8803652 14.7856348,33.8401565 14.7856348,34.103513 C14.7856348,34.3678609 15.5251478,35.4057565 18.8813739,35.4057565 C22.2385913,35.4057565 22.9767826,34.3678609 22.9767826,34.103513 C22.9767826,33.8401565 21.4369565,34.8803652 18.8813739,34.8803652 Z" id="Fill-14" fill="#F7945E"></path>
                                <path d="M18.8813739,42.747687 L18.8813739,52.5394609 L0,52.5394609 C0,48.5755652 9.94542609,42.747687 18.8813739,42.747687 Z" id="Fill-15" fill="#F7941E"></path>
                                <path d="M18.8813739,42.747687 L18.8813739,52.5394609 L37.7624174,52.5394609 C37.7624174,48.5755652 27.8173217,42.747687 18.8813739,42.747687 Z" id="Fill-16" fill="#F7941E"></path>
                                <path d="M18.8813739,42.747687 C16.9813739,42.747687 15.0347826,43.013687 13.1476696,43.4680348 C13.1605565,43.4832348 15.2413043,46.1670261 18.8813739,46.1670261 C22.2528,46.1670261 24.4948,43.8691826 24.8186261,43.5156174 C22.8684,43.0315304 20.8510957,42.747687 18.8813739,42.747687 Z" id="Fill-17" fill="#F36C21"></path>
                                <g id="Group-21" stroke-width="1" fill="none" transform="translate(1.652174, 0.000000)">
                                    <path d="M13.3439478,43.0870435 C13.3439478,43.0870435 14.4809739,44.4966783 17.2292,44.4966783 C19.9784174,44.4966783 21.1141217,43.0870435 21.1141217,43.0870435 C21.1141217,43.0870435 17.0831478,41.6195826 13.3439478,43.0870435 Z" id="Fill-18" fill="#FDCC9B"></path>
                                    <path d="M29.6228174,5.09993043 C29.6228174,5.09993043 24.028887,-2.00937391 12.4002261,0.671443478 C0.771895652,3.35226087 -0.0994608696,10.3455826 0.250469565,17.1492348 C0.600069565,23.9542087 1.53354783,27.9452 2.63587826,27.4521913 C3.73787826,26.9591826 3.16490435,22.4672522 3.28121739,21.4306783 C3.3972,20.3941043 4.44666087,15.7075478 11.5186261,16.4070783 C18.5909217,17.105287 24.550313,14.5417739 24.550313,14.5417739 C24.550313,14.5417739 26.9499304,17.5738435 28.5284174,18.1547478 C31.6830783,19.3152348 30.6478261,27.056 31.884313,27.056 C33.1194783,27.056 39.1809739,9.18013913 29.6228174,5.09993043 Z" id="Fill-20" fill="#51362A"></path>
                                </g>
                            </g>
                        </g>
                    </g>
                </g>
            </g>
        </g>
    </g>
</svg>