<?xml version="1.0" encoding="UTF-8"?>
<svg width="18px" height="19px" viewBox="0 0 18 19" version="1.1" xmlns="http://www.w3.org/2000/svg" xmlns:xlink="http://www.w3.org/1999/xlink">
    <!-- Generator: Sketch 50.2 (55047) - http://www.bohemiancoding.com/sketch -->
    <title>delete</title>
    <desc>Created with Sketch.</desc>
    <defs></defs>
    <g id="Page-1" stroke="none" stroke-width="1" fill="none" fill-rule="evenodd">
        <g id="Purchase-Page(without-login)-8,14" transform="translate(-1389.000000, -295.000000)" fill="#5E5E5E">
            <g id="Group-15" transform="translate(0.000000, 93.000000)">
                <g id="Group-2" transform="translate(1073.000000, 100.000000)">
                    <g id="Group-7" transform="translate(316.000000, 102.000000)">
                        <g id="delete">
                            <g id="Group-3" transform="translate(0.000000, 2.700000)">
                                <path d="M8.2306318,12.5243835 L9.74086192,12.5243835 L9.74086192,3.70783073 L8.2306318,3.70783073 L8.2306318,12.5243835 Z M5.6383682,12.551433 L5.31116736,3.73491743 L6.8203431,3.68026101 L7.14758159,12.4968138 L5.6383682,12.551433 Z M12.3328619,12.551433 L10.8236862,12.4970367 L11.150887,3.6805211 L12.6601004,3.73514037 L12.3328619,12.551433 Z M4.26558577,14.7098972 L13.6802259,14.7098972 L14.8564393,1.52231697 L3.08963598,1.52231697 L4.26558577,14.7098972 Z M14.3719079,16.2 L3.57416736,16.2 C3.18276151,16.2 2.85631381,15.9049445 2.82208368,15.5202688 L1.57364435,1.52231697 L0,1.52231697 L0,0.0322142202 L17.9714937,0.0322142202 L17.9714937,1.52231697 L16.372431,1.52231697 L15.1239916,15.5200087 C15.0900251,15.9047216 14.7633138,16.2 14.3719079,16.2 Z" id="Fill-1"></path>
                            </g>
                            <path d="M12.6,3.6 L11.1405233,3.6 L11.1405233,1.4896398 L6.85947667,1.4896398 L6.85947667,3.6 L5.4,3.6 L5.4,1.2413665 C5.4,0.556869138 5.9456161,0 6.61623662,0 L11.3837634,0 C12.0543839,0 12.6,0.556869138 12.6,1.2413665 L12.6,3.6" id="Fill-4"></path>
                        </g>
                    </g>
                </g>
            </g>
        </g>
    </g>
</svg>