<?xml version="1.0" encoding="UTF-8"?>
<svg width="12px" height="7px" viewBox="0 0 12 7" version="1.1" xmlns="http://www.w3.org/2000/svg" xmlns:xlink="http://www.w3.org/1999/xlink">
    <!-- Generator: Sketch 50.2 (55047) - http://www.bohemiancoding.com/sketch -->
    <title>angle-arrow-down</title>
    <desc>Created with Sketch.</desc>
    <defs></defs>
    <g id="Page-1" stroke="none" stroke-width="1" fill="none" fill-rule="evenodd">
        <g id="Profile-page" transform="translate(-348.000000, -552.000000)" fill="#B1B1B1">
            <path d="M359.880271,552.721535 L359.278675,552.120317 C359.19861,552.040229 359.106369,552 359.001952,552 C358.898089,552 358.805848,552.040229 358.725967,552.120317 L353.999908,556.846835 L349.274771,552.120317 C349.194152,552.040229 349.101911,552 348.998048,552 C348.893631,552 348.80139,552.040229 348.721325,552.120317 L348.120282,552.721535 C348.040402,552.801439 348,552.893707 348,552.998339 C348,553.102786 348.040402,553.195054 348.120282,553.275143 L353.723185,558.879683 C353.803988,558.960325 353.896229,559 353.999908,559 C354.104509,559 354.19675,558.960325 354.276631,558.879683 L359.880271,553.275143 C359.960336,553.195054 360,553.102786 360,552.998339 C360,552.893707 359.960336,552.801439 359.880271,552.721535 Z" id="angle-arrow-down"></path>
        </g>
    </g>
</svg>