<?xml version="1.0" encoding="UTF-8"?>
<svg width="16px" height="9px" viewBox="0 0 16 9" version="1.1" xmlns="http://www.w3.org/2000/svg" xmlns:xlink="http://www.w3.org/1999/xlink">
    <!-- Generator: Sketch 50.2 (55047) - http://www.bohemiancoding.com/sketch -->
    <title>angle-arrow-down</title>
    <desc>Created with Sketch.</desc>
    <defs></defs>
    <g id="Page-1" stroke="none" stroke-width="1" fill="none" fill-rule="evenodd">
        <g id="Venue-Page-2-8.14" transform="translate(-1486.000000, -224.000000)" fill="#D65050">
            <g id="Group" transform="translate(1135.000000, 203.000000)">
                <path d="M366.840362,21.9276883 L366.038234,21.1546938 C365.93148,21.0517228 365.808492,21 365.66927,21 C365.530785,21 365.407797,21.0517228 365.30129,21.1546938 L358.999877,27.2316453 L352.699694,21.1546938 C352.592203,21.0517228 352.469215,21 352.33073,21 C352.191508,21 352.06852,21.0517228 351.961766,21.1546938 L351.160376,21.9276883 C351.053869,22.0304221 351,22.1490523 351,22.2835789 C351,22.4178683 351.053869,22.5364986 351.160376,22.6394696 L358.630913,29.8453062 C358.738651,29.948989 358.861639,30 358.999877,30 C359.139345,30 359.262333,29.948989 359.368841,29.8453062 L366.840362,22.6394696 C366.947115,22.5364986 367,22.4178683 367,22.2835789 C367,22.1490523 366.947115,22.0304221 366.840362,21.9276883 Z" id="angle-arrow-down"></path>
            </g>
        </g>
    </g>
</svg>