<?xml version="1.0" encoding="UTF-8"?>
<svg width="11px" height="24px" viewBox="0 0 11 24" version="1.1" xmlns="http://www.w3.org/2000/svg" xmlns:xlink="http://www.w3.org/1999/xlink">
    <!-- Generator: Sketch 50.2 (55047) - http://www.bohemiancoding.com/sketch -->
    <title>facebook-letter-logo</title>
    <desc>Created with Sketch.</desc>
    <defs></defs>
    <g id="Page-1" stroke="none" stroke-width="1" fill="none" fill-rule="evenodd">
        <g id="Home-page" transform="translate(-1389.000000, -2748.000000)" fill="#D65050" fill-rule="nonzero">
            <g id="footer" transform="translate(0.000000, 2722.000000)">
                <g id="Group-3" transform="translate(1389.000000, 26.000000)">
                    <g id="facebook-letter-logo">
                        <path d="M2.4004505,4.53613861 C2.4004505,5.12638119 2.4004505,7.76088119 2.4004505,7.76088119 L0.0379009901,7.76088119 L0.0379009901,11.7041089 L2.4004505,11.7041089 L2.4004505,23.421995 L7.25362871,23.421995 L7.25362871,11.7044356 L10.5103366,11.7044356 C10.5103366,11.7044356 10.8153416,9.81368812 10.9631881,7.74634158 C10.5393069,7.74634158 7.2719802,7.74634158 7.2719802,7.74634158 C7.2719802,7.74634158 7.2719802,5.45229703 7.2719802,5.05019802 C7.2719802,4.64722772 7.80112376,4.10517822 8.32411386,4.10517822 C8.84612376,4.10517822 9.94786634,4.10517822 10.9683069,4.10517822 C10.9683069,3.56830198 10.9683069,1.71327723 10.9683069,5.44554455e-05 C9.6060495,5.44554455e-05 8.05624752,5.44554455e-05 7.37310396,5.44554455e-05 C2.28048515,-0.000217821782 2.4004505,3.94693069 2.4004505,4.53613861 Z" id="Facebook"></path>
                    </g>
                </g>
            </g>
        </g>
    </g>
</svg>