<?xml version="1.0" encoding="UTF-8"?>
<svg width="20px" height="20px" viewBox="0 0 20 20" version="1.1" xmlns="http://www.w3.org/2000/svg" xmlns:xlink="http://www.w3.org/1999/xlink">
    <!-- Generator: Sketch 50.2 (55047) - http://www.bohemiancoding.com/sketch -->
    <title>instagram-logo</title>
    <desc>Created with Sketch.</desc>
    <defs></defs>
    <g id="Page-1" stroke="none" stroke-width="1" fill="none" fill-rule="evenodd">
        <g id="Home-page" transform="translate(-1467.000000, -2749.000000)" fill="#D65050" fill-rule="nonzero">
            <g id="footer" transform="translate(0.000000, 2722.000000)">
                <g id="Group-3" transform="translate(1389.000000, 26.000000)">
                    <g id="instagram-logo" transform="translate(78.000000, 1.000000)">
                        <path d="M19.9922581,2.08322581 C19.8696774,0.892258065 18.8825806,0.00064516129 17.6832258,0 C12.5632258,0 7.44387097,0 2.32387097,0.00129032258 C2.18387097,0.00129032258 2.04129032,0.0116129032 1.90580645,0.0380645161 C0.771612903,0.25483871 0.00129032258,1.19290323 0.00129032258,2.34709677 C0.00129032258,4.89935484 0.00129032258,7.4516129 0.00129032258,10.003871 C0.00129032258,12.5509677 0.00129032258,15.0980645 0.00258064516,17.6451613 C0.00258064516,17.7748387 0.0122580645,17.9051613 0.0283870968,18.0348387 C0.176774194,19.1425806 1.16064516,20.0012903 2.28,20.0019355 C7.42774194,20.0019355 12.576129,20.0019355 17.723871,20.0012903 C17.8122581,20.0012903 17.8993548,19.996129 17.9877419,19.9864516 C19.1187097,19.8535484 19.9980645,18.8658065 19.9980645,17.7270968 C20,12.5780645 20,7.42967742 19.9987097,2.28129032 C20,2.21419355 20.0012903,2.14903226 19.9922581,2.08322581 Z M10.0006452,6.15612903 C12.1258065,6.15548387 13.8458065,7.87290323 13.8483871,10 C13.8509677,12.1258065 12.1335484,13.8464516 10.0070968,13.8477419 C7.87677419,13.8483871 6.15419355,12.1264516 6.15677419,9.99741935 C6.15935484,7.87741935 7.88064516,6.15612903 10.0006452,6.15612903 Z M17.6980645,8.5683871 C17.6980645,11.3303226 17.6980645,14.0929032 17.6980645,16.8567742 C17.6980645,17.3767742 17.3819355,17.696129 16.8612903,17.696129 C12.5883871,17.696129 8.31548387,17.696129 4.04193548,17.696129 C3.73419355,17.696129 3.4283871,17.6967742 3.12,17.696129 C2.63806452,17.6954839 2.31096774,17.3677419 2.31096774,16.8864516 C2.31032258,14.1109677 2.31096774,11.3354839 2.31096774,8.55935484 C2.31096774,8.5316129 2.31096774,8.50322581 2.31096774,8.47032258 C2.89225806,8.47032258 3.46645161,8.47032258 4.04645161,8.47032258 C3.65806452,10.0374194 3.83612903,11.5367742 4.60322581,12.9548387 C5.16387097,13.9896774 5.96774194,14.7941935 6.99290323,15.3729032 C9.01741935,16.5154839 11.536129,16.4077419 13.463871,15.0903226 C14.5335484,14.3587097 15.3025806,13.3858065 15.7612903,12.1735484 C16.2174194,10.963871 16.2767742,9.72903226 15.9580645,8.46774194 C16.5393548,8.46774194 17.1122581,8.46774194 17.6967742,8.46774194 C17.6980645,8.50193548 17.6980645,8.53483871 17.6980645,8.5683871 Z M17.6980645,5.3683871 C17.6967742,5.82322581 17.3619355,6.15483871 16.9051613,6.15548387 C16.8993548,6.15548387 16.8929032,6.15548387 16.8896774,6.15548387 C16.5193548,6.15548387 16.1464516,6.15548387 15.7735484,6.15548387 C15.3941935,6.15548387 15.0135484,6.15612903 14.6329032,6.15483871 C14.1948387,6.15483871 13.8541935,5.82774194 13.8516129,5.38967742 C13.8464516,4.61870968 13.8464516,3.84774194 13.8516129,3.07806452 C13.8541935,2.63483871 14.1935484,2.31032258 14.6393548,2.30967742 C15.3980645,2.30903226 16.1548387,2.30903226 16.9122581,2.30967742 C17.3612903,2.31032258 17.6974194,2.64387097 17.6987097,3.09548387 C17.6993548,3.85419355 17.6993548,4.61096774 17.6980645,5.3683871 Z" id="Shape"></path>
                    </g>
                </g>
            </g>
        </g>
    </g>
</svg>