<?xml version="1.0" encoding="UTF-8"?>
<svg width="22px" height="22px" viewBox="0 0 22 22" version="1.1" xmlns="http://www.w3.org/2000/svg" xmlns:xlink="http://www.w3.org/1999/xlink">
    <!-- Generator: Sketch 50.2 (55047) - http://www.bohemiancoding.com/sketch -->
    <title>linkedin-logo</title>
    <desc>Created with Sketch.</desc>
    <defs></defs>
    <g id="Page-1" stroke="none" stroke-width="1" fill="none" fill-rule="evenodd">
        <g id="Home-page" transform="translate(-1508.000000, -2749.000000)" fill="#D65050" fill-rule="nonzero">
            <g id="footer" transform="translate(0.000000, 2722.000000)">
                <g id="Group-3" transform="translate(1389.000000, 26.000000)">
                    <g id="linkedin-logo" transform="translate(119.000000, 1.000000)">
                        <path d="M21.9549281,12.890826 L21.9549281,21.007703 L17.2492761,21.007703 L17.2492761,13.4344455 C17.2492761,11.5319814 16.5686543,10.2336241 14.8653643,10.2336241 C13.5651183,10.2336241 12.7913411,11.1086218 12.4509281,11.9550348 C12.3267889,12.2576241 12.2948353,12.6787889 12.2948353,13.1023527 L12.2948353,21.007703 L7.58760093,21.007703 C7.58760093,21.007703 7.65099768,8.18109049 7.58760093,6.85215777 L12.2943759,6.85215777 L12.2943759,8.85864965 C12.2848306,8.87365661 12.2724269,8.88983759 12.2634432,8.90438515 L12.2943759,8.90438515 L12.2943759,8.85864965 C12.9197169,7.89549884 14.0365104,6.51960557 16.5362413,6.51960557 C19.633239,6.51955452 21.9549281,8.54278886 21.9549281,12.890826 Z M2.66363341,0.0284825986 C1.05329466,0.0284825986 0,1.08473782 0,2.47374942 C0,3.83249188 1.02282135,4.92080278 2.60115545,4.92080278 L2.63259861,4.92080278 C4.27412529,4.92080278 5.29500696,3.83269606 5.29500696,2.47374942 C5.26407425,1.08473782 4.27412529,0.0284825986 2.66363341,0.0284825986 Z M0.279568445,21.007703 L4.98501624,21.007703 L4.98501624,6.85215777 L0.279568445,6.85215777 L0.279568445,21.007703 Z" id="LinkedIn"></path>
                    </g>
                </g>
            </g>
        </g>
    </g>
</svg>