<?xml version="1.0" encoding="UTF-8"?>
<svg width="15px" height="16px" viewBox="0 0 15 16" version="1.1" xmlns="http://www.w3.org/2000/svg" xmlns:xlink="http://www.w3.org/1999/xlink">
    <!-- Generator: Sketch 50.2 (55047) - http://www.bohemiancoding.com/sketch -->
    <title>Group 5</title>
    <desc>Created with Sketch.</desc>
    <defs></defs>
    <g id="Page-1" stroke="none" stroke-width="1" fill="none" fill-rule="evenodd">
        <g id="Home-page(items-are-not-in-a-table)" transform="translate(-296.000000, -16.000000)" fill="#5E5E5E">
            <g id="Group-3" transform="translate(296.000000, 16.000000)">
                <g id="Group-5">
                    <g id="search-(1)">
                        <path d="M14.7709091,14.1504545 L11.0740909,10.3060227 C12.0248864,9.17522727 12.5457955,7.75295455 12.5457955,6.27238636 C12.5457955,2.81386364 9.73193182,0 6.27204545,0 C2.81386364,0 0,2.81386364 0,6.27238636 C0,9.73193182 2.81386364,12.5457955 6.27204545,12.5457955 C7.57056818,12.5457955 8.80909091,12.1544318 9.86625,11.4098864 L13.5923864,15.285 C13.7481818,15.4476136 13.9571591,15.5365909 14.1825,15.5365909 C14.3942045,15.5365909 14.595,15.4554545 14.7484091,15.3078409 C15.0746591,14.9948864 15.0838636,14.4767045 14.7709091,14.1504545 Z M6.27204545,1.63670455 C8.82886364,1.63670455 10.9090909,3.71693182 10.9090909,6.27238636 C10.9090909,8.82920455 8.82886364,10.9090909 6.27204545,10.9090909 C3.71659091,10.9090909 1.63670455,8.82920455 1.63670455,6.27238636 C1.63670455,3.71693182 3.71659091,1.63670455 6.27204545,1.63670455 Z" id="Fill-1"></path>
                    </g>
                </g>
            </g>
        </g>
    </g>
</svg>