<?xml version="1.0" encoding="UTF-8"?>
<svg width="11px" height="12px" viewBox="0 0 11 12" version="1.1" xmlns="http://www.w3.org/2000/svg" xmlns:xlink="http://www.w3.org/1999/xlink">
    <!-- Generator: Sketch 50.2 (55047) - http://www.bohemiancoding.com/sketch -->
    <title>Group 7</title>
    <desc>Created with Sketch.</desc>
    <defs></defs>
    <g id="Page-1" stroke="none" stroke-width="1" fill="none" fill-rule="evenodd">
        <g id="Home-page" transform="translate(-405.000000, -1590.000000)" fill="#5E5E5E">
            <g id="Group-9" transform="translate(390.000000, 1577.000000)">
                <g id="Group-8">
                    <g id="Group-7" transform="translate(15.000000, 13.000000)">
                        <g id="right-arrow-(3)" transform="translate(3.000000, 6.000000) scale(-1, 1) translate(-3.000000, -6.000000) ">
                            <path d="M0.67224,11.5707429 C0.59532,11.6512 0.4992,11.6915543 0.39372,11.6915543 C0.28776,11.6915543 0.19224,11.6512 0.11532,11.5707429 C-0.0384,11.4097029 -0.0384,11.1483429 0.11532,10.9873029 L5.01144,5.85803429 L0.11532,0.729394286 C-0.0384,0.568228571 -0.0384,0.306491429 0.11532,0.145954286 C0.26856,-0.0150857143 0.5184,-0.0150857143 0.67224,0.145954286 L5.84628,5.56637714 C6,5.72741714 6,5.98915429 5.84628,6.14981714 L0.67224,11.5707429 Z" id="Fill-1"></path>
                        </g>
                        <g id="right-arrow-(3)-copy" transform="translate(8.000000, 6.000000) scale(-1, 1) translate(-8.000000, -6.000000) translate(5.000000, 0.000000)">
                            <path d="M0.67224,11.5707429 C0.59532,11.6512 0.4992,11.6915543 0.39372,11.6915543 C0.28776,11.6915543 0.19224,11.6512 0.11532,11.5707429 C-0.0384,11.4097029 -0.0384,11.1483429 0.11532,10.9873029 L5.01144,5.85803429 L0.11532,0.729394286 C-0.0384,0.568228571 -0.0384,0.306491429 0.11532,0.145954286 C0.26856,-0.0150857143 0.5184,-0.0150857143 0.67224,0.145954286 L5.84628,5.56637714 C6,5.72741714 6,5.98915429 5.84628,6.14981714 L0.67224,11.5707429 Z" id="Fill-1"></path>
                        </g>
                    </g>
                </g>
            </g>
        </g>
    </g>
</svg>