<?xml version="1.0" encoding="UTF-8"?>
<svg width="60px" height="60px" viewBox="0 0 60 60" version="1.1" xmlns="http://www.w3.org/2000/svg" xmlns:xlink="http://www.w3.org/1999/xlink">
    <!-- Generator: Sketch 50.2 (55047) - http://www.bohemiancoding.com/sketch -->
    <title>man (2)</title>
    <desc>Created with Sketch.</desc>
    <defs>
        <circle id="path-1" cx="30" cy="30" r="30"></circle>
        <path d="M54.8251656,27.587053 C54.8251656,42.727351 42.5517881,55.0003642 27.4118543,55.0003642 C12.2730132,55.0003642 0,42.727351 0,27.587053 C0,12.4485762 12.2730132,0.175562914 27.4118543,0.175562914 C42.5517881,0.175562914 54.8251656,12.4485762 54.8251656,27.587053 Z" id="path-3"></path>
    </defs>
    <g id="Page-1" stroke="none" stroke-width="1" fill="none" fill-rule="evenodd">
        <g id="Purchase-Page(without-login)-8,14" transform="translate(-651.000000, -704.000000)">
            <g id="Group-15" transform="translate(6.000000, 97.000000)">
                <g id="Group-Copy-2" transform="translate(384.000000, 607.000000)">
                    <g id="man-(2)" transform="translate(261.000000, 0.000000)">
                        <mask id="mask-2" fill="white">
                            <use xlink:href="#path-1"></use>
                        </mask>
                        <use id="Mask" fill="#E77D66" xlink:href="#path-1"></use>
                        <g id="man" mask="url(#mask-2)">
                            <g transform="translate(2.000000, 6.000000)">
                                <path d="M54.8251656,27.587053 C54.8251656,42.727351 42.5517881,55.0003642 27.4118543,55.0003642 C12.2730132,55.0003642 0,42.727351 0,27.587053 C0,12.4485762 12.2730132,0.175562914 27.4118543,0.175562914 C42.5517881,0.175562914 54.8251656,12.4485762 54.8251656,27.587053 Z" id="Fill-1" fill="#7E6990"></path>
                                <g id="Group-16" stroke-width="1" fill="none">
                                    <mask id="mask-4" fill="white">
                                        <use xlink:href="#path-3"></use>
                                    </mask>
                                    <use id="Clip-3" stroke="#E77D66" fill="#E77D66" xlink:href="#path-3"></use>
                                    <path d="M43.3130464,58.6700662 L43.3130464,58.6729801 L11.5303311,58.6729801 L11.5303311,58.6700662 C11.5303311,56.8758278 11.826457,55.1471523 12.3782781,53.537947 C12.4766225,53.247649 12.5848013,52.9602649 12.7013576,52.6757947 L12.7013576,52.6728808 C12.8153642,52.3884106 12.941755,52.109404 13.0728808,51.8333113 C13.5977483,50.7278477 14.2508278,49.6948675 15.0091722,48.7485762 C15.1996689,48.5110927 15.3949007,48.2805298 15.5952318,48.0587086 C15.6950331,47.944702 15.7988411,47.8339735 15.904106,47.7228808 C16.0093709,47.614702 16.1146358,47.5079801 16.2213576,47.3998013 C16.7578808,46.8636424 17.334106,46.372649 17.9387417,45.9202649 C18.2417881,45.6955298 18.5462914,45.485 18.865,45.2813907 C18.9786424,45.2103642 19.0911921,45.1375166 19.2092053,45.069404 C19.259106,45.0395364 19.3130132,45.0096689 19.3643709,44.9783444 C19.5209934,44.8858278 19.6761589,44.7962252 19.8353311,44.7095364 C19.8411589,44.7037086 19.8466225,44.7037086 19.8466225,44.7037086 C19.9762914,44.6341391 20.1015894,44.5598344 20.2279801,44.4818874 C20.602053,44.2567881 20.9608278,44.0080132 21.3035762,43.7333775 C22.4021192,42.8584768 23.3127152,41.7555629 23.9657947,40.4993046 C24.1734106,40.1008278 24.3555298,39.6881457 24.5092384,39.2627152 C24.8891391,38.2013245 25.095298,37.0605298 25.095298,35.8680132 L27.4118543,35.8807616 L27.4173179,35.8807616 L29.7936093,35.8924172 C29.7936093,37.0703642 29.9943046,38.2002318 30.3654636,39.2474172 C30.5148013,39.6768543 30.6954636,40.0895364 30.9019868,40.4880132 C31.5521523,41.7500993 32.4598344,42.8584768 33.5598344,43.7362914 C33.7747351,43.9125828 33.9936424,44.0746689 34.2242053,44.2269205 C34.248245,44.2454967 34.2697351,44.259702 34.2937748,44.2753642 C34.4004967,44.346755 34.5086755,44.4192384 34.6226821,44.4844371 C34.7465232,44.5598344 34.871457,44.6352318 34.996755,44.7037086 C35.018245,44.7095364 35.036457,44.7179139 35.0506623,44.7306623 C35.1916225,44.8089735 35.3325828,44.8887417 35.4706291,44.9725166 C35.5900993,45.0424503 35.7095695,45.1134768 35.8304967,45.1888742 C35.9528808,45.2642715 36.0752649,45.3411258 36.1947351,45.4278146 C36.4438742,45.587351 36.6871854,45.7607285 36.9232119,45.940298 C36.9232119,45.9428477 36.9261258,45.9428477 36.9261258,45.9428477 L36.9290397,45.9428477 C37.2320861,46.167947 37.5249338,46.4083444 37.8123179,46.6531126 C38.1011589,46.8989735 38.3757947,47.1564901 38.6435099,47.4227483 C41.5315563,50.2995033 43.3130464,54.2722517 43.3130464,58.6700662 Z" id="Fill-2" fill="#ECC19C" mask="url(#mask-4)"></path>
                                    <path d="M43.3130464,58.6700662 L11.5303311,58.6700662 C11.5303311,56.8758278 11.826457,55.1471523 12.3782781,53.537947 C12.4766225,53.247649 12.5848013,52.9602649 12.7013576,52.6757947 L12.7013576,52.6728808 C12.8153642,52.3884106 12.941755,52.109404 13.0728808,51.8333113 C13.5977483,50.7278477 14.2508278,49.6948675 15.0091722,48.7485762 C15.1996689,48.5110927 15.3949007,48.2805298 15.5952318,48.0587086 C15.6950331,47.944702 15.7988411,47.8339735 15.904106,47.7228808 C16.0093709,47.614702 16.1146358,47.5079801 16.2213576,47.3998013 C16.7578808,46.8636424 17.334106,46.372649 17.9387417,45.9202649 C18.2417881,45.6955298 18.5462914,45.485 18.865,45.2813907 C18.9786424,45.2103642 19.0911921,45.1375166 19.2092053,45.069404 C19.259106,45.0366225 19.3104636,45.005298 19.361457,44.9754305 C19.5180795,44.8829139 19.6761589,44.7933113 19.8353311,44.7066225 C19.8411589,44.7007947 19.8466225,44.7037086 19.8466225,44.7037086 L19.8466225,44.7007947 C19.9762914,44.6283113 20.1015894,44.5572848 20.2279801,44.4818874 C20.602053,44.2542384 20.9608278,44.0021854 21.2966556,43.7275497 C21.2995695,43.7304636 21.2995695,43.7304636 21.3035762,43.7333775 C22.8545033,45.3210927 25.0144371,46.3070861 27.4118543,46.3129139 L27.435894,46.3129139 C29.8318543,46.3129139 32.0016225,45.3240066 33.5598344,43.7362914 L33.5627483,43.7333775 C33.7747351,43.9096689 33.9965563,44.0746689 34.2242053,44.2269205 C34.248245,44.2454967 34.2697351,44.259702 34.2923179,44.2753642 C34.4004967,44.346755 34.5115894,44.4163245 34.6226821,44.4844371 C34.7450662,44.5598344 34.871457,44.6326821 34.996755,44.7007947 C35.018245,44.7066225 35.0324503,44.7193709 35.0506623,44.7277483 C35.1916225,44.8060596 35.3354967,44.8858278 35.473543,44.9696026 C35.5930132,45.0424503 35.7124834,45.1134768 35.8304967,45.1888742 C35.9528808,45.2642715 36.0752649,45.3411258 36.1947351,45.4278146 C36.4438742,45.587351 36.6871854,45.7607285 36.9232119,45.940298 L36.9290397,45.940298 C37.2320861,46.167947 37.5278477,46.4054305 37.8123179,46.6542053 C38.1011589,46.8989735 38.3757947,47.157947 38.6435099,47.4242053 C41.5315563,50.2995033 43.3130464,54.2722517 43.3130464,58.6700662 Z" id="Fill-4" fill="#1C5A7D" mask="url(#mask-4)"></path>
                                    <path d="M35.473543,44.9696026 L35.4706291,44.9725166 L35.1431788,45.3054305 C33.0888742,47.3998013 30.3443377,48.5537086 27.4173179,48.5537086 L27.4118543,48.5537086 C24.4567881,48.5438742 21.7220861,47.3914238 19.6761589,45.2999669 L19.3643709,44.9798013 L19.361457,44.9768874 C19.5180795,44.8829139 19.6761589,44.7933113 19.8353311,44.7066225 C19.8411589,44.7007947 19.8466225,44.7037086 19.8466225,44.7037086 L19.8466225,44.7007947 C19.9762914,44.6283113 20.1015894,44.5572848 20.2279801,44.4818874 C20.602053,44.2542384 20.9608278,44.0036424 21.2966556,43.7275497 C21.2995695,43.7304636 21.2995695,43.7304636 21.3035762,43.7333775 C22.8545033,45.3210927 25.0144371,46.3070861 27.4118543,46.3129139 L27.435894,46.3129139 C29.8318543,46.3129139 32.0016225,45.3240066 33.5598344,43.7362914 L33.5627483,43.7333775 C33.7747351,43.9096689 33.9965563,44.0746689 34.2242053,44.2269205 C34.248245,44.2454967 34.2697351,44.259702 34.2923179,44.2753642 C34.4004967,44.3478477 34.5115894,44.4163245 34.6226821,44.485894 C34.7450662,44.5598344 34.871457,44.6326821 34.996755,44.7007947 C35.018245,44.7066225 35.0324503,44.7193709 35.0506623,44.7277483 C35.1916225,44.8046026 35.3354967,44.8858278 35.473543,44.9696026 Z" id="Fill-5" fill="#7CA6BA" mask="url(#mask-4)"></path>
                                    <path d="M39.6193046,18.8511589 L39.6193046,26.164702 C39.6193046,26.2969205 39.616755,26.4276821 39.6138411,26.5602649 C39.6109272,26.6626159 39.6080132,26.7635099 39.6025497,26.8658609 C39.5996358,26.9671192 39.592351,27.0665563 39.5839735,27.1674503 C39.5810596,27.2373841 39.5752318,27.3054967 39.5697682,27.3754305 C39.5668543,27.4165894 39.5639404,27.4551987 39.5570199,27.4978146 C39.5511921,27.5732119 39.5453642,27.6500662 39.5326159,27.7254636 C39.5271523,27.7964901 39.5213245,27.8689735 39.5100331,27.9403642 C39.5027483,28.0099338 39.4943709,28.0809603 39.4827152,28.1534437 C39.4557616,28.3683444 39.4189735,28.584702 39.3803642,28.7966887 C39.3534106,28.9420199 39.326457,29.0855298 39.2965894,29.2264901 C39.2936755,29.2319536 39.2936755,29.2377815 39.2907616,29.2436093 C39.2878477,29.2647351 39.2849338,29.2862252 39.2780132,29.307351 C39.2750993,29.3131788 39.2750993,29.3190066 39.2721854,29.3244702 C39.2721854,29.331755 39.2721854,29.3372185 39.2692715,29.3430464 C39.2638079,29.3729139 39.2579801,29.4027815 39.2481457,29.432649 C39.2423179,29.4683444 39.2339404,29.5051325 39.2251987,29.5408278 C39.2182781,29.5794371 39.2095364,29.6162252 39.1967881,29.6519205 C39.1884106,29.7058278 39.1742053,29.7600993 39.161457,29.8140066 C39.1527152,29.8438742 39.1472517,29.8766556 39.1341391,29.9065232 C39.1286755,29.9334768 39.1199338,29.9604305 39.1144702,29.9848344 C39.0503642,30.2296026 38.9793377,30.47 38.9039404,30.7089404 C38.868245,30.822947 38.8310927,30.9336755 38.7928477,31.0476821 C38.7899338,31.0604305 38.784106,31.0717219 38.7815563,31.0844702 C38.744404,31.1857285 38.7087086,31.2880795 38.6733775,31.3889735 C38.6606291,31.4188411 38.6489735,31.4487086 38.6376821,31.482947 C38.600894,31.5783775 38.5651987,31.6738079 38.5265894,31.7703311 C38.4810596,31.8868874 38.4344371,32.000894 38.3859934,32.1149007 C38.3433775,32.2172517 38.2989404,32.3181457 38.2534106,32.4204967 C38.247947,32.4376159 38.2392053,32.4532781 38.2322848,32.4718543 C38.1823841,32.5785762 38.1339404,32.686755 38.082947,32.7920199 C38.0315894,32.9031126 37.9776821,33.0138411 37.9204967,33.1249338 C37.8137748,33.3427483 37.6972185,33.5616556 37.5792053,33.7750993 L37.4182119,34.0624834 C36.9559934,34.8565232 36.4438742,35.6021192 35.8873179,36.2905298 C35.8119205,36.3903311 35.7336093,36.4857616 35.6542053,36.5779139 C35.5416556,36.7130464 35.4294702,36.8456291 35.3154636,36.9734768 C35.2131126,37.0874834 35.1107616,37.2011258 35.0065894,37.3122185 C34.7192053,37.6210927 34.4249007,37.9153974 34.1258609,38.1900331 C34.0646689,38.2512252 34.0023841,38.3040397 33.9397351,38.3608609 C33.8370199,38.4548344 33.7361258,38.5444371 33.6308609,38.6311258 C33.5496358,38.7021523 33.4658609,38.7720861 33.3817219,38.8401987 C33.1671854,39.0168543 32.9508278,39.1873179 32.7315563,39.3468543 C32.6419536,39.4164238 32.5494371,39.4819868 32.4554636,39.5446358 C32.3061258,39.6528146 32.1538742,39.7551656 32.0001656,39.8535099 C31.9163907,39.9103311 31.829702,39.9642384 31.742649,40.015596 C31.4654636,40.1889735 31.1795364,40.347053 30.9019868,40.4880132 C30.8750331,40.5036755 30.8506291,40.5149669 30.8236755,40.5262583 C30.7482781,40.5663245 30.6743377,40.6016556 30.5989404,40.6388079 C30.523543,40.6745033 30.4466887,40.7098344 30.3654636,40.7455298 C30.2660265,40.7910596 30.1676821,40.8322185 30.068245,40.8719205 C30.0296358,40.8890397 29.9899338,40.904702 29.9513245,40.9163576 C29.8347682,40.9644371 29.715298,41.0099669 29.5987417,41.0485762 C29.4519536,41.1024834 29.3011589,41.1465563 29.1547351,41.1895364 C29.0538411,41.219404 28.9485762,41.2463576 28.8458609,41.2703974 C28.8403974,41.2733113 28.8345695,41.2762252 28.8261921,41.2762252 C28.7234768,41.3002649 28.6211258,41.3232119 28.5202318,41.3417881 C28.4932781,41.3472517 28.4659603,41.3545364 28.4390066,41.3570861 C28.3552318,41.3716556 28.2710927,41.3873179 28.1873179,41.3956954 C28.0678477,41.4142715 27.9480132,41.4284768 27.8270861,41.4339404 C27.7859272,41.4412252 27.7462252,41.4441391 27.704702,41.4441391 C27.6096358,41.4496026 27.5127483,41.4525166 27.4202318,41.4525166 L27.4118543,41.4525166 C27.3178808,41.4525166 27.2253642,41.4496026 27.1328477,41.4441391 C27.0975166,41.4441391 27.0603642,41.4412252 27.0246689,41.4339404 C26.940894,41.4313907 26.8542053,41.422649 26.7642384,41.4113576 C26.7460265,41.4113576 26.7245364,41.4084437 26.7074172,41.4040728 C26.5966887,41.3898675 26.485596,41.3716556 26.3715894,41.3501656 C26.2765232,41.3359603 26.1796358,41.3144702 26.0812914,41.2904305 C25.5691722,41.1738742 25.0413907,40.9972185 24.5077815,40.7611921 C24.3285762,40.6799669 24.146457,40.5961921 23.9657947,40.4993046 C23.6867881,40.3627152 23.4096026,40.2060927 23.1335099,40.0356291 C22.902947,39.8946689 22.6709272,39.7453311 22.4447351,39.5857947 C22.3296358,39.5049338 22.2170861,39.4251656 22.1019868,39.3410265 C21.7461258,39.0795033 21.3917219,38.7946689 21.0446026,38.4901656 C20.9495364,38.4034768 20.854106,38.3153311 20.7572185,38.2257285 C20.6621523,38.1390397 20.5652649,38.0490728 20.4727483,37.9623841 C20.2392715,37.737649 20.0116225,37.5041722 19.7898013,37.2608609 C19.7031126,37.1683444 19.6160596,37.0732781 19.5293709,36.9734768 C19.2889735,36.7046689 19.0554967,36.4256623 18.8336755,36.1342715 C18.7469868,36.0304636 18.6657616,35.9222848 18.5859934,35.814106 C18.282947,35.4127152 17.9955629,34.9931126 17.725298,34.5589404 C17.6542715,34.4423841 17.5817881,34.321457 17.5133113,34.2049007 C17.4295364,34.0639404 17.3483113,33.9204305 17.2670861,33.7765563 C16.9684106,33.2374834 16.6923179,32.6780132 16.4519205,32.0992384 C16.4162252,32.0150993 16.380894,31.9313245 16.3510265,31.8471854 C16.3025828,31.7404636 16.2599669,31.6293709 16.2213576,31.5215563 C16.1616225,31.3620199 16.1048013,31.2043046 16.0505298,31.0447682 C15.9966225,30.8852318 15.9452649,30.7246026 15.8942715,30.5625166 C15.8472848,30.405894 15.801755,30.2507285 15.760596,30.0915563 C15.7121523,29.9236424 15.6666225,29.7528146 15.6280132,29.5794371 C15.6250993,29.5623179 15.6196358,29.5437417 15.6167219,29.5251656 C15.5599007,29.2862252 15.508543,29.0443709 15.4630132,28.7981457 C15.4032781,28.4736093 15.3562914,28.1450662 15.3195033,27.8121523 C15.305298,27.7068874 15.2950993,27.6030795 15.2867219,27.4978146 C15.2754305,27.3867219 15.2652318,27.278543 15.2597682,27.1674503 C15.2451987,26.9671192 15.2353642,26.7635099 15.2295364,26.5602649 C15.2269868,26.4276821 15.2240728,26.2954636 15.2240728,26.164702 L15.2240728,18.8511589 C15.2240728,17.176755 15.5628146,15.580298 16.1729139,14.1277152 C16.1885762,14.0850993 16.2056954,14.0464901 16.2242715,14.008245 C16.461755,13.4589735 16.7363907,12.9322848 17.0507285,12.4289073 C17.0991722,12.3476821 17.1505298,12.2693709 17.2018874,12.1925166 C19.3756623,8.86046358 23.1364238,6.65937086 27.4118543,6.65645695 L27.4231457,6.65645695 C28.3523179,6.65645695 29.2570861,6.7602649 30.1250662,6.95513245 C30.919106,7.13433775 31.6829139,7.3918543 32.4088411,7.71930464 C33.3973841,8.16331126 34.3167219,8.73225166 35.1431788,9.41228477 C35.8392384,9.9815894 36.4708278,10.6219205 37.0215563,11.3289073 C37.2375497,11.605 37.4411589,11.8894702 37.6331126,12.1826821 C37.6873841,12.2639073 37.7412914,12.3447682 37.7882781,12.4289073 C38.1000662,12.9297351 38.3787086,13.4531457 38.6165563,14.0024172 L38.6690066,14.1277152 C39.2681788,15.5504305 39.6036424,17.1082781 39.616755,18.7444371 C39.6193046,18.7801325 39.6193046,18.8158278 39.6193046,18.8511589 Z" id="Fill-6" fill="#ECC19C" mask="url(#mask-4)"></path>
                                    <path d="M39.6193046,26.164702 C39.6193046,26.2969205 39.616755,26.4276821 39.6138411,26.5602649 C39.6109272,26.6626159 39.6080132,26.7635099 39.6025497,26.8658609 C39.5996358,26.9671192 39.592351,27.0665563 39.5839735,27.1674503 C39.5810596,27.2373841 39.5752318,27.3054967 39.5697682,27.3754305 C39.5668543,27.4165894 39.5639404,27.4551987 39.5570199,27.4978146 C39.5511921,27.5732119 39.5453642,27.6500662 39.5326159,27.7254636 C39.5271523,27.7964901 39.5184106,27.8689735 39.5100331,27.9403642 C39.5027483,28.0099338 39.4943709,28.0809603 39.4827152,28.1534437 C39.4557616,28.3683444 39.4189735,28.584702 39.3803642,28.7966887 C39.3563245,28.9234437 39.3319205,29.0458278 39.3049669,29.1696689 C39.302053,29.1966225 39.2965894,29.2192053 39.2907616,29.2436093 C39.2878477,29.2647351 39.2849338,29.2862252 39.2780132,29.3062583 C39.2750993,29.3131788 39.2750993,29.3190066 39.2721854,29.3244702 C39.2721854,29.330298 39.2721854,29.3372185 39.2692715,29.3430464 L39.2692715,29.3488742 C39.2638079,29.3816556 39.2550662,29.4140728 39.2481457,29.4453974 C39.2423179,29.4781788 39.2339404,29.5109603 39.2251987,29.5408278 C39.2182781,29.5794371 39.2095364,29.6162252 39.1967881,29.6519205 C39.1854967,29.7116556 39.1698344,29.7684768 39.1527152,29.825298 C39.1498013,29.8526159 39.1443377,29.8795695 39.1341391,29.9065232 C39.1286755,29.9334768 39.1199338,29.9604305 39.1144702,29.9848344 C39.0503642,30.2296026 38.9793377,30.47 38.9039404,30.7089404 C38.868245,30.822947 38.8325497,30.9336755 38.7928477,31.0476821 C38.7899338,31.0604305 38.784106,31.0717219 38.7815563,31.0830132 C38.7458609,31.1857285 38.7087086,31.2866225 38.6733775,31.3889735 C38.6620861,31.4188411 38.6489735,31.4487086 38.6376821,31.482947 C38.600894,31.5783775 38.5651987,31.6738079 38.5265894,31.7703311 C38.4825166,31.8868874 38.4344371,32.000894 38.3859934,32.1149007 C38.3444702,32.2172517 38.2989404,32.3181457 38.2534106,32.4204967 C38.247947,32.4376159 38.2392053,32.4532781 38.2337417,32.4703974 C38.1823841,32.5785762 38.1339404,32.686755 38.082947,32.7920199 C38.0315894,32.9016556 37.9791391,33.0138411 37.9219536,33.1249338 C37.8137748,33.3427483 37.6972185,33.5616556 37.5806623,33.7736424 L37.4182119,34.0624834 C36.9574503,34.8565232 36.4453311,35.6021192 35.8873179,36.2905298 C35.8119205,36.3903311 35.7350662,36.4857616 35.6542053,36.5779139 C35.5431126,36.7130464 35.4294702,36.8456291 35.3154636,36.9734768 C35.2131126,37.0874834 35.1118543,37.2011258 35.0065894,37.3122185 C34.7192053,37.6210927 34.4249007,37.9139404 34.1258609,38.1900331 C34.0661258,38.2497682 34.0034768,38.3040397 33.9397351,38.3608609 C33.8370199,38.4548344 33.7361258,38.5444371 33.6308609,38.6311258 C33.5496358,38.7021523 33.4658609,38.7720861 33.3817219,38.8401987 C33.1671854,39.0168543 32.9508278,39.1873179 32.7315563,39.3468543 C32.6419536,39.4149669 32.5494371,39.4819868 32.4569205,39.5446358 C32.3061258,39.6528146 32.1538742,39.7537086 32.0016225,39.8535099 C31.9178477,39.9103311 31.8311589,39.9642384 31.744106,40.0141391 C31.4654636,40.1889735 31.1806291,40.347053 30.9019868,40.4880132 C30.8750331,40.5036755 30.8506291,40.5149669 30.8236755,40.5262583 C30.7497351,40.5663245 30.6743377,40.6016556 30.5989404,40.637351 C30.525,40.6745033 30.4466887,40.7098344 30.3654636,40.7455298 C30.2674834,40.7910596 30.1676821,40.8322185 30.069702,40.8719205 C30.0296358,40.8890397 29.9913907,40.904702 29.9513245,40.9163576 C29.8347682,40.9644371 29.715298,41.0085099 29.5987417,41.0485762 C29.4519536,41.1024834 29.3011589,41.1465563 29.1547351,41.1895364 C29.0538411,41.219404 28.9485762,41.2463576 28.8473179,41.2689404 C28.8403974,41.2733113 28.8345695,41.2762252 28.8261921,41.2762252 C28.7234768,41.2988079 28.6225828,41.3232119 28.5202318,41.3417881 C28.4932781,41.3472517 28.4659603,41.3530795 28.4390066,41.3559934 C28.3552318,41.3716556 28.2710927,41.3858609 28.1873179,41.3956954 C28.0678477,41.4128146 27.9480132,41.4284768 27.828543,41.4339404 C27.7859272,41.4412252 27.7476821,41.4441391 27.704702,41.4441391 C27.6096358,41.4496026 27.5142053,41.4525166 27.4202318,41.4525166 L27.4118543,41.4525166 C27.3193377,41.4525166 27.2253642,41.4496026 27.1328477,41.4441391 C27.0975166,41.4441391 27.0618212,41.4412252 27.0246689,41.4339404 C26.940894,41.4313907 26.8542053,41.422649 26.7642384,41.4099007 C26.7460265,41.4099007 26.7259934,41.4069868 26.7074172,41.4040728 C26.5966887,41.3898675 26.485596,41.3716556 26.3715894,41.3501656 C26.2765232,41.3359603 26.1796358,41.3144702 26.0812914,41.2904305 C25.5691722,41.1738742 25.0428477,40.9972185 24.5092384,40.7611921 C24.3285762,40.6799669 24.146457,40.5961921 23.9657947,40.4993046 C23.688245,40.3612583 23.4096026,40.2060927 23.1335099,40.0356291 C22.902947,39.8975828 22.675298,39.748245 22.4447351,39.5857947 C22.3310927,39.5049338 22.2170861,39.4237086 22.1034437,39.3395695 C21.7461258,39.0795033 21.3931788,38.7946689 21.0446026,38.4890728 C20.9495364,38.4020199 20.854106,38.3153311 20.7572185,38.2257285 C20.6621523,38.1390397 20.5667219,38.0490728 20.4727483,37.9623841 C20.2392715,37.737649 20.0116225,37.5027152 19.7898013,37.2608609 C19.7031126,37.1683444 19.6160596,37.0718212 19.5293709,36.9734768 C19.2904305,36.7032119 19.0554967,36.4256623 18.8336755,36.1342715 C18.7469868,36.0290066 18.6657616,35.9222848 18.5859934,35.814106 C18.282947,35.4127152 17.9955629,34.9931126 17.725298,34.5589404 C17.6542715,34.4409272 17.5817881,34.321457 17.5133113,34.2049007 C17.4295364,34.0639404 17.3483113,33.9204305 17.2670861,33.7765563 C16.9684106,33.2374834 16.6923179,32.6765563 16.4519205,32.0992384 C16.4162252,32.0150993 16.380894,31.9313245 16.3510265,31.8471854 C16.3025828,31.7390066 16.2614238,31.6293709 16.2213576,31.5215563 C16.1616225,31.3620199 16.1048013,31.2028477 16.0505298,31.0447682 C15.9966225,30.8852318 15.9452649,30.7231457 15.8957285,30.5625166 C15.8472848,30.405894 15.801755,30.2507285 15.760596,30.0915563 C15.7121523,29.9236424 15.6680795,29.7528146 15.6280132,29.5794371 C15.6250993,29.5608609 15.6196358,29.5437417 15.6167219,29.5251656 C15.5599007,29.2862252 15.508543,29.0429139 15.4644702,28.7966887 C15.4032781,28.4736093 15.3562914,28.1450662 15.3195033,27.8121523 C15.305298,27.7068874 15.2965563,27.6016225 15.2867219,27.4978146 C15.2754305,27.3867219 15.2652318,27.278543 15.2597682,27.1674503 C15.2451987,26.9671192 15.2368212,26.7635099 15.2295364,26.5602649 C15.2269868,26.4276821 15.2240728,26.2954636 15.2240728,26.164702 L17.1720199,29.9932119 L20.5182781,31.4516225 L24.475,31.8089404 L24.4779139,31.8089404 L27.4118543,32.0748344 L27.4289735,32.0748344 L30.1735099,32.3239735 L30.1764238,32.3239735 L36.2970861,32.8757947 L39.6193046,26.164702 Z" id="Fill-7" fill="#D4DCE6" mask="url(#mask-4)"></path>
                                    <path d="M27.435894,28.088245 L27.4315232,31.0389404 L27.4315232,31.0418543 L27.4289735,32.0762914 L27.4289735,32.8874503 L27.4260596,35.583543 L27.4260596,35.586457 L27.4231457,35.583543 L27.4202318,35.583543 L27.4173179,35.5806291 L27.4118543,35.5777152 L15.6280132,29.5805298 C15.6250993,29.5623179 15.6196358,29.5437417 15.6167219,29.5266225 C15.5599007,29.2876821 15.508543,29.0443709 15.4644702,28.7981457 C15.4047351,28.4750662 15.3562914,28.1450662 15.320596,27.8121523 C15.305298,27.7083444 15.2965563,27.6030795 15.2867219,27.4978146 C15.2754305,27.3867219 15.2666887,27.278543 15.2608609,27.1689073 C15.2451987,26.9685762 15.2368212,26.7635099 15.2295364,26.5602649 C15.2269868,26.4276821 15.2240728,26.2969205 15.2240728,26.164702 L15.2240728,22.5846026 C15.2240728,22.6359603 15.2269868,22.6873179 15.2269868,22.7368543 C15.2269868,22.7725497 15.2295364,22.809702 15.2339073,22.8450331 C15.2623179,23.6802318 15.4003642,24.5951987 15.6549669,25.5298344 C15.8614901,26.2783444 16.1204636,26.9696689 16.4191391,27.5874172 L16.4191391,27.5903311 C17.2044371,29.2235762 18.2559934,30.3319536 19.2234106,30.5111589 C19.2831457,30.5209934 19.3457947,30.5268212 19.4069868,30.532649 C19.7814238,30.5752649 20.1740728,30.5978477 20.5780132,30.5978477 C22.1059934,30.5978477 23.4635099,29.37 24.3172848,28.873543 C24.3227483,28.8691722 24.3285762,28.8666225 24.334404,28.8637086 C24.3799338,28.836755 24.4254636,28.8094371 24.4637086,28.7824834 C24.475,28.774106 24.4877483,28.7682781 24.499404,28.7609934 C25.2191391,28.3512252 26.2550331,28.0911589 27.4118543,28.088245 L27.435894,28.088245 Z" id="Fill-8" fill="#D4DCE6" mask="url(#mask-4)"></path>
                                    <path d="M39.6236755,22.5835099 L39.6207616,26.163245 C39.6207616,27.0621854 39.5369868,27.9429139 39.3818212,28.7966887 C39.3177152,29.1383444 39.2466887,29.4767219 39.1629139,29.8125497 L36.3968874,33.8049669 L27.4275166,35.5820861 L27.4246026,35.5820861 L27.4216887,35.585 L27.4216887,35.5820861 L27.4133113,28.0853311 L27.435894,28.0853311 C28.5927152,28.088245 29.6326159,28.3486755 30.3512583,28.7599007 C30.3625497,28.7653642 30.3727483,28.7711921 30.3840397,28.7795695 C30.4266556,28.8065232 30.4707285,28.8338411 30.5162583,28.8607947 C30.5191722,28.8637086 30.525,28.8666225 30.5304636,28.8691722 C31.3871523,29.3674503 32.741755,30.596755 34.2697351,30.596755 C34.6736755,30.596755 35.0663245,30.572351 35.4407616,30.5311921 C35.5048675,30.5239073 35.5646026,30.5184437 35.6268874,30.509702 C36.591755,30.3304967 37.6458609,29.2206623 38.4286093,27.5888742 L38.4286093,27.5859603 C38.7272848,26.9685762 38.9848013,26.2768874 39.1927815,25.5272848 C39.4615894,24.5398344 39.6025497,23.5735099 39.6207616,22.6971523 C39.6236755,22.6589073 39.6236755,22.621755 39.6236755,22.5835099 Z" id="Fill-9" fill="#D4DCE6" mask="url(#mask-4)"></path>
                                    <path d="M30.4095364,31.9637417 C30.4095364,32.4733113 29.072053,32.8874503 27.4216887,32.8874503 C25.7713245,32.8874503 24.4338411,32.4733113 24.4338411,31.9637417 C24.4338411,31.4530795 25.7713245,31.0403974 27.4216887,31.0403974 C29.072053,31.0403974 30.4095364,31.4530795 30.4095364,31.9637417 Z" id="Fill-10" fill="#ECC19C" mask="url(#mask-4)"></path>
                                    <path d="M38.1069868,18.6719536 C38.1069868,18.6209603 38.0712914,18.5768874 38.020298,18.5696026 C37.5919536,18.5040397 35.6625828,18.2410596 33.589702,18.2410596 C31.2378146,18.2410596 28.2029801,18.9779139 27.6722848,18.9779139 L27.2013245,18.9779139 C26.9565563,18.9779139 26.1654305,18.8187417 25.1524834,18.6479139 C23.9898344,18.4501325 22.5372517,18.2410596 21.2853642,18.2410596 C19.7672185,18.2410596 18.3284768,18.3845695 17.497649,18.4829139 C17.1931457,18.519702 16.9713245,18.5524834 16.854404,18.5696026 C16.8034106,18.5768874 16.7677152,18.6209603 16.7677152,18.6719536 L16.7436755,19.9369536 C16.7436755,19.9810265 16.7706291,20.0192715 16.8088742,20.0378477 L16.9527483,20.0862914 C17.1661921,20.1675166 17.1476159,23.9778146 18.282947,24.9310265 C18.9575166,25.4915894 19.5592384,25.811755 22.0917881,25.811755 C23.5560265,25.811755 24.4793709,25.4161921 25.3528146,24.2353311 C25.9833113,23.3873841 26.5424172,21.3840728 26.5424172,21.3840728 C26.7045033,20.5871192 27.2821854,20.4975166 27.4118543,20.4847682 L27.435894,20.4847682 C27.4573841,20.4847682 28.1516225,20.4975166 28.3308278,21.3840728 C28.3308278,21.3840728 28.8913907,23.3873841 29.5204305,24.2353311 C30.3953311,25.4161921 31.3186755,25.811755 32.7829139,25.811755 C35.3154636,25.811755 35.9171854,25.4915894 36.591755,24.9310265 C37.7256291,23.9778146 37.7085099,20.1675166 37.9204967,20.0862914 L38.0658278,20.0378477 C38.1040728,20.0192715 38.1313907,19.9810265 38.1313907,19.9369536 L38.1069868,18.6719536 Z M25.3528146,23.1808609 C24.9787417,24.0615894 24.019702,25.1969205 22.6665563,25.2668543 C18.6074834,25.4700993 18.4209934,24.3376821 18.1565563,23.4383775 C17.8932119,22.5390728 17.8250993,21.7523179 17.9303642,20.8559272 C18.0341722,19.9569868 18.2618212,19.430298 18.6701325,19.1673179 C18.8435099,19.0503974 19.0358278,18.9451325 19.5239073,18.8697351 C19.9606291,18.8070861 20.6348344,18.7673841 21.7588742,18.7673841 C22.4119536,18.7673841 23.0195033,18.8187417 23.564404,18.9054305 C25.0086093,19.14 25.9862252,19.6309934 25.9862252,20.113245 C25.9847682,20.4461589 25.9020861,21.8776159 25.3528146,23.1808609 Z M36.717053,23.4383775 C36.4522517,24.3376821 36.2672185,25.4700993 32.2081457,25.2668543 C30.853543,25.1969205 29.8915894,24.0615894 29.5204305,23.1808609 C28.9726159,21.8776159 28.8884768,20.4461589 28.8884768,20.113245 C28.8884768,19.4474172 30.7369868,18.7673841 33.1158278,18.7673841 C35.491755,18.7673841 35.8716556,18.9451325 36.2045695,19.1673179 C36.6117881,19.430298 36.8394371,19.9569868 36.944702,20.8559272 C37.0499669,21.7523179 36.9800331,22.5390728 36.717053,23.4383775 Z" id="Fill-11" fill="#232323" mask="url(#mask-4)"></path>
                                    <path d="M39.6466225,14.1248013 C39.6437086,14.1248013 39.6437086,14.1277152 39.6407947,14.1277152 L15.2240728,14.1277152 C15.2240728,5.50254967 21.0362252,5.84966887 27.4118543,6.55956954 L27.4173179,6.55956954 C27.8700662,6.61092715 28.3253642,6.66228477 28.7806623,6.71182119 C33.5496358,7.24251656 37.4327815,5.18092715 39.3774503,3.35682119 C42.0225497,5.24211921 42.4935099,12.1983444 39.6466225,14.1248013 Z" id="Fill-12" fill="#D4DCE6" mask="url(#mask-4)"></path>
                                    <path d="M19.4783775,13.6181457 L19.4128146,13.8246689 C19.3800331,13.9270199 19.3457947,14.0279139 19.3104636,14.1277152 C19.280596,14.2085762 19.2532781,14.2883444 19.2208609,14.3666556 C18.6599338,15.8647682 17.8119868,17.2364901 16.7720861,18.4657947 C16.0421523,19.3308609 15.3078477,20.7207947 15.2324503,22.8450331 C15.2269868,22.9674172 15.2240728,23.0912583 15.2240728,23.2194702 L15.2240728,14.1277152 L16.2242715,14.0067881 L17.2018874,13.8898675 L18.3514238,13.7518212 L19.4783775,13.6181457 Z" id="Fill-13" fill="#D4DCE6" mask="url(#mask-4)"></path>
                                    <path d="M39.6804967,14.1277152 L35.4280132,13.6210596 L35.4932119,13.8261258 C36.0439404,15.5376821 36.9716556,17.0911589 38.1324834,18.4657947 C38.9064901,19.3833113 39.6804967,20.8857947 39.6804967,23.2220199 C39.6804967,20.0207285 39.6804967,14.1277152 39.6804967,14.1277152 Z" id="Fill-14" fill="#D4DCE6" mask="url(#mask-4)"></path>
                                    <path d="M36.4992384,13.6210596 C36.4992384,14.5713576 32.4299669,15.3428146 27.4118543,15.3428146 C22.3922848,15.3428146 18.3230132,14.5713576 18.3230132,13.6210596 C18.3230132,12.6693046 22.3922848,11.8982119 27.4118543,11.8982119 C32.4299669,11.8982119 36.4992384,12.6693046 36.4992384,13.6210596 Z" id="Fill-15" fill="#D4DCE6" mask="url(#mask-4)"></path>
                                </g>
                            </g>
                        </g>
                    </g>
                </g>
            </g>
        </g>
    </g>
</svg>