<?xml version="1.0" encoding="UTF-8"?>
<svg width="22px" height="18px" viewBox="0 0 22 18" version="1.1" xmlns="http://www.w3.org/2000/svg" xmlns:xlink="http://www.w3.org/1999/xlink">
    <!-- Generator: Sketch 50.2 (55047) - http://www.bohemiancoding.com/sketch -->
    <title>twitter</title>
    <desc>Created with Sketch.</desc>
    <defs></defs>
    <g id="Page-1" stroke="none" stroke-width="1" fill="none" fill-rule="evenodd">
        <g id="Home-page" transform="translate(-1425.000000, -2751.000000)" fill="#B1B1B1" fill-rule="nonzero">
            <g id="footer" transform="translate(0.000000, 2722.000000)">
                <g id="Group-3" transform="translate(1389.000000, 26.000000)">
                    <g id="twitter" transform="translate(36.000000, 3.000000)">
                        <path d="M21.9571579,2.11230019 C21.1492047,2.4705614 20.2811267,2.71273294 19.3699064,2.82161793 C20.2999103,2.26411306 21.0142027,1.38132554 21.3505926,0.329356725 C20.4800702,0.845649123 19.5161014,1.22050682 18.4899493,1.42249513 C17.6682729,0.546998051 16.4974698,0 15.2017856,0 C12.7139844,0 10.6970604,2.01683821 10.6970604,4.50459649 C10.6970604,4.85766862 10.7369006,5.20147758 10.8137076,5.53122027 C7.06984795,5.34329825 3.75050682,3.54993372 1.52872125,0.824463938 C1.14095517,1.48978168 0.918768031,2.26359844 0.918768031,3.08917739 C0.918768031,4.65207797 1.71402729,6.03091618 2.92278363,6.83874074 C2.18434698,6.81532554 1.48973879,6.61269396 0.882444444,6.27527485 C0.882015595,6.29405848 0.882015595,6.31292788 0.882015595,6.33192593 C0.882015595,8.51451462 2.43483821,10.335154 4.49554776,10.7490799 C4.11760234,10.851961 3.71958674,10.9071969 3.30874854,10.9071969 C3.01846004,10.9071969 2.7362768,10.8788928 2.46116959,10.82623 C3.03445614,12.6158207 4.69805068,13.9184094 6.66930214,13.9546472 C5.12758674,15.1629747 3.18519688,15.8830565 1.07461209,15.8830565 C0.710990253,15.8830565 0.35242885,15.8617856 0,15.8199727 C1.99355166,17.0982456 4.36144639,17.8440156 6.90538402,17.8440156 C15.1912359,17.8440156 19.7223353,10.9797583 19.7223353,5.02689279 C19.7223353,4.83159454 19.7178752,4.63732554 19.7092554,4.44408577 C20.5895127,3.80900195 21.3532515,3.01562963 21.9571579,2.11230019 Z" id="Shape"></path>
                    </g>
                </g>
            </g>
        </g>
    </g>
</svg>