<?xml version="1.0" encoding="UTF-8"?>
<svg width="18px" height="26px" viewBox="0 0 18 26" version="1.1" xmlns="http://www.w3.org/2000/svg" xmlns:xlink="http://www.w3.org/1999/xlink">
    <!-- Generator: Sketch 50.2 (55047) - http://www.bohemiancoding.com/sketch -->
    <title>facebook-placeholder-for-locate-places-on-maps</title>
    <desc>Created with Sketch.</desc>
    <defs></defs>
    <g id="Page-1" stroke="none" stroke-width="1" fill="none" fill-rule="evenodd">
        <g id="Venue-Page-2-8.14" transform="translate(-390.000000, -378.000000)" fill="#B1B1B1" fill-rule="nonzero">
            <g id="facebook-placeholder-for-locate-places-on-maps" transform="translate(390.000000, 378.000000)">
                <path d="M17.5293423,6.46616779 C17.4368658,6.11957718 17.2490738,5.75027517 17.1101477,5.4269396 C15.447745,1.43178523 11.8154295,0 8.88251678,0 C4.95628188,0 0.631993289,2.63271141 0.0546644295,8.05934899 L0.0546644295,9.16804027 C0.0546644295,9.21430872 0.0706107383,9.6299396 0.093261745,9.83784564 C0.416899329,12.424047 2.45760403,15.1726107 3.98168456,17.7588121 C5.62137584,20.5296644 7.32279866,23.255396 9.00845638,25.9799799 C10.0478658,24.2019664 11.0835302,22.4005772 12.0992617,20.6685906 C12.3760872,20.160302 12.6974295,19.6523154 12.974557,19.1671611 C13.1592685,18.8441275 13.5121409,18.521094 13.6733557,18.2205302 C15.3129866,15.2185772 17.9521611,12.1934295 17.9521611,9.21424832 L17.9521611,7.99036913 C17.9522215,7.66739597 17.5518725,6.53581208 17.5293423,6.46616779 Z M8.95439597,12.0317919 C7.80028188,12.0317919 6.53702013,11.4547047 5.91348322,9.86097987 C5.82058389,9.60728859 5.82807383,9.09887919 5.82807383,9.05230872 L5.82807383,8.33641611 C5.82807383,6.30471141 7.5531745,5.38079195 9.0539396,5.38079195 C10.9015369,5.38079195 12.3304832,6.85896644 12.3304832,8.70656376 C12.3304832,10.5541007 10.8019933,12.0317919 8.95439597,12.0317919 Z" id="Facebook_Places"></path>
            </g>
        </g>
    </g>
</svg>